<?xml version="1.0" encoding="UTF-8"?>
<!DOCTYPE svg PUBLIC "-//W3C//DTD SVG 1.1//EN" "http://www.w3.org/Graphics/SVG/1.1/DTD/svg11.dtd">
<svg version="1.1" xmlns="http://www.w3.org/2000/svg" xmlns:xlink="http://www.w3.org/1999/xlink" x="0" y="0" width="1000" height="1000" viewBox="0, 0, 1000, 1000">
  <g id="Layer_1">
    <path d="M516,948 C261.949,948 56,742.051 56,488 C56,233.949 261.949,28 516,28 C770.051,28 976,233.949 976,488 C976,742.051 770.051,948 516,948 z" fill="#F37320"/>
    <g id="text">
      <path d="M183.5,169 L848.333,169 C848.333,169 896.333,222.333 914,258 C936.667,294 958.011,356.42 958.011,356.42 L75,356.42 C75,356.42 89.986,308.247 113.667,264.333 C140,215.5 183.5,169 183.5,169 z" fill="#AEA79F" id="rect3029"/>
      <path d="M245.309,331.521 C243.693,331.521 242.682,330.713 242.275,329.098 L209.754,199.197 C209.483,198.391 209.582,197.617 210.053,196.875 C210.523,196.134 211.231,195.629 212.177,195.362 C212.982,195.091 213.756,195.19 214.498,195.661 C215.24,196.132 215.744,196.84 216.011,197.785 L245.309,315.152 L274.803,197.785 C275.07,196.84 275.575,196.132 276.317,195.661 C277.059,195.19 277.832,195.091 278.638,195.362 C279.448,195.629 280.088,196.134 280.558,196.875 C281.029,197.617 281.131,198.391 280.864,199.197 L248.539,329.098 C248.137,330.713 247.06,331.521 245.309,331.521 z" fill="#FFFFFF" id="path2990"/>
      <path d="M320.342,331.727 C317.107,331.727 313.773,331.256 310.339,330.313 C306.905,329.369 303.774,327.552 300.947,324.859 C298.119,322.167 295.83,318.498 294.079,313.851 C292.328,309.205 291.452,303.111 291.452,295.569 L291.452,231.525 C291.452,219.943 293.809,211.055 298.524,204.86 C303.505,198.662 310.778,195.563 320.342,195.563 C330.038,195.563 337.308,198.662 342.155,204.86 C347.005,210.919 349.43,219.807 349.43,231.525 L349.43,295.569 C349.429,303.111 348.554,309.205 346.803,313.851 C345.052,318.498 342.763,322.167 339.935,324.859 C337.107,327.552 333.976,329.369 330.543,330.313 C327.109,331.256 323.709,331.727 320.343,331.727 z M320.342,201.826 C312.664,201.826 307.075,204.183 303.573,208.897 C299.664,213.879 297.71,221.421 297.71,231.524 L297.71,295.568 C297.71,305.802 299.664,313.41 303.573,318.392 C307.206,323.106 312.796,325.463 320.342,325.463 C327.748,325.463 333.403,323.106 337.308,318.392 C341.081,313.677 342.967,306.07 342.968,295.568 L342.968,231.524 C342.968,221.154 341.081,213.612 337.308,208.897 C333.539,204.183 327.884,201.826 320.342,201.826 z" fill="#FFFFFF" id="path2992"/>
      <path d="M409.562,331.727 L363.903,331.727 C361.749,331.727 360.673,330.651 360.673,328.497 L360.673,198.595 C360.673,197.786 360.976,197.078 361.582,196.472 C362.188,195.865 362.962,195.562 363.903,195.562 C364.713,195.562 365.421,195.865 366.027,196.472 C366.633,197.078 366.936,197.786 366.936,198.595 L366.936,325.464 L409.563,325.464 C410.504,325.464 411.278,325.768 411.884,326.374 C412.49,326.98 412.793,327.688 412.793,328.498 C412.793,330.651 411.716,331.728 409.563,331.728 z" fill="#FFFFFF" id="path2994"/>
      <path d="M448.131,331.521 C445.032,331.521 441.9,331.083 438.735,330.208 C435.57,329.332 432.674,327.649 430.048,325.158 C427.421,322.668 425.267,319.268 423.584,314.959 C421.9,310.649 421.059,305.06 421.059,298.192 L421.059,198.391 C421.059,197.585 421.362,196.88 421.968,196.273 C422.575,195.667 423.348,195.364 424.289,195.364 C425.099,195.364 425.807,195.667 426.413,196.273 C427.02,196.88 427.323,197.585 427.323,198.391 L427.323,298.192 C427.323,304.251 427.996,309.064 429.342,312.634 C430.688,316.204 432.371,318.931 434.391,320.815 C436.411,322.7 438.634,323.911 441.059,324.449 C443.484,324.988 445.841,325.257 448.13,325.257 C450.284,325.257 452.573,324.988 454.998,324.449 C457.423,323.911 459.646,322.7 461.666,320.815 C463.686,318.931 465.369,316.204 466.715,312.634 C468.061,309.064 468.734,304.25 468.734,298.192 L468.734,198.391 C468.734,197.585 469.037,196.88 469.644,196.273 C470.25,195.667 470.958,195.364 471.768,195.364 C472.709,195.364 473.483,195.667 474.089,196.273 C474.695,196.88 474.998,197.585 474.998,198.391 L474.998,298.192 C474.998,305.06 474.19,310.649 472.575,314.959 C470.96,319.268 468.839,322.668 466.213,325.158 C463.586,327.649 460.69,329.332 457.523,330.208 C454.356,331.083 451.225,331.521 448.131,331.521 z" fill="#FFFFFF" id="path2996"/>
      <path d="M547.05,331.727 C545.566,331.727 544.622,331.053 544.22,329.705 L497.956,215.164 L497.956,328.494 C497.956,330.648 496.879,331.725 494.726,331.725 C492.572,331.725 491.495,330.648 491.495,328.494 L491.495,198.593 C491.495,196.842 492.371,195.831 494.121,195.559 C495.872,195.292 497.083,195.967 497.753,197.582 L543.819,312.133 L543.819,198.596 C543.819,197.786 544.122,197.078 544.728,196.472 C545.335,195.866 546.108,195.562 547.05,195.562 C547.991,195.562 548.765,195.866 549.371,196.472 C549.977,197.078 550.28,197.786 550.28,198.596 L550.28,328.497 C550.28,330.248 549.405,331.325 547.654,331.728 z" fill="#FFFFFF" id="path2998"/>
      <path d="M627.529,195.367 C628.47,195.367 629.244,195.67 629.85,196.276 C630.456,196.882 630.76,197.588 630.76,198.394 C630.76,200.548 629.683,201.624 627.529,201.624 L598.232,201.624 L598.232,328.296 C598.232,329.237 597.896,330.011 597.224,330.617 C596.552,331.223 595.811,331.526 595.001,331.526 C592.847,331.526 591.771,330.45 591.771,328.296 L591.771,201.624 L562.276,201.624 C561.467,201.624 560.759,201.321 560.152,200.715 C559.546,200.109 559.243,199.335 559.243,198.394 C559.243,197.588 559.546,196.882 560.152,196.276 C560.759,195.67 561.467,195.367 562.276,195.367 L627.528,195.367 z" fill="#FFFFFF" id="path3000"/>
      <path d="M647.499,266.673 L647.499,325.459 L686.895,325.459 C687.836,325.459 688.609,325.762 689.216,326.368 C689.822,326.974 690.125,327.682 690.125,328.492 C690.125,330.646 689.048,331.722 686.894,331.722 L644.472,331.722 C642.314,331.722 641.235,330.646 641.235,328.492 L641.235,198.59 C641.235,197.781 641.538,197.073 642.144,196.467 C642.751,195.86 643.526,195.557 644.472,195.557 L686.894,195.557 C687.836,195.557 688.609,195.86 689.216,196.467 C689.822,197.073 690.125,197.781 690.125,198.59 C690.125,200.744 689.048,201.821 686.894,201.821 L647.499,201.821 L647.499,260.409 L686.894,260.409 C689.048,260.409 690.125,261.486 690.125,263.64 C690.125,264.449 689.822,265.157 689.216,265.763 C688.609,266.37 687.836,266.673 686.894,266.673 z" fill="#FFFFFF" id="path3002"/>
      <path d="M710.628,266.673 L710.628,325.459 L750.024,325.459 C750.965,325.459 751.739,325.762 752.345,326.368 C752.951,326.974 753.254,327.682 753.254,328.492 C753.254,330.646 752.177,331.722 750.024,331.722 L707.601,331.722 C705.443,331.722 704.364,330.646 704.364,328.492 L704.364,198.59 C704.364,197.781 704.668,197.073 705.274,196.467 C705.88,195.86 706.656,195.557 707.601,195.557 L750.024,195.557 C750.965,195.557 751.739,195.86 752.345,196.467 C752.951,197.073 753.254,197.781 753.254,198.59 C753.254,200.744 752.177,201.821 750.024,201.821 L710.628,201.821 L710.628,260.409 L750.024,260.409 C752.177,260.409 753.254,261.486 753.254,263.64 C753.254,264.449 752.951,265.157 752.345,265.763 C751.739,266.37 750.965,266.673 750.024,266.673 z" fill="#FFFFFF" id="path3004"/>
      <path d="M815.18,269.706 C821.103,275.362 824.064,283.376 824.064,293.75 L824.064,328.294 C824.064,330.448 822.987,331.525 820.834,331.525 C820.028,331.525 819.322,331.221 818.716,330.615 C818.11,330.009 817.806,329.235 817.807,328.294 L817.807,293.75 C817.806,285.399 815.584,278.967 811.139,274.457 C806.694,269.946 800.431,267.69 792.35,267.69 L774.169,267.69 L774.169,328.294 C774.169,330.448 773.092,331.525 770.939,331.525 C770.129,331.525 769.421,331.222 768.815,330.615 C768.208,330.009 767.905,329.235 767.905,328.294 L767.905,198.393 C767.905,197.587 768.208,196.881 768.815,196.275 C769.421,195.669 770.129,195.366 770.939,195.366 L792.35,195.366 C803.123,195.366 811.069,198.261 816.188,204.052 C821.307,209.844 823.867,218.933 823.867,231.321 C823.867,243.578 821.374,252.669 816.389,258.596 C814.235,261.156 811.475,263.177 808.109,264.656 C809.453,265.33 810.698,266.071 811.845,266.879 C812.991,267.686 814.103,268.629 815.18,269.706 z M774.17,261.426 L792.351,261.426 C801.105,261.426 807.503,259.069 811.543,254.355 C815.448,249.912 817.4,242.234 817.4,231.322 C817.4,220.817 815.448,213.24 811.543,208.593 C807.638,203.947 801.241,201.624 792.351,201.624 L774.17,201.624 z" fill="#FFFFFF" id="path3006"/>
    </g>
    <g id="path3095">
      <path d="M245.333,861.333 C245.667,855.333 257.277,810.34 257.277,810.34 L179.277,707.68 L199.025,692.87 L248.394,742.239 L252.343,603.019 L279.99,603.019 L278.015,729.409 L285.914,727.434 L295.788,590.184 L323.435,590.184 L319.486,723.484 L328.372,728.421 L334.297,624.741 L352.07,630.665 L348.12,735.325 L356.019,736.313 L365.893,663.246 L379.716,673.12 L371.817,760.997 L363.918,806.417 L343.183,829.127 L334.667,908 C334.667,908 265.667,884.667 245.333,861.333 z" fill="#8A0059"/>
      <path d="M245.333,861.333 C245.667,855.333 257.277,810.34 257.277,810.34 L179.277,707.68 L199.025,692.87 L248.394,742.239 L252.343,603.019 L279.99,603.019 L278.015,729.409 L285.914,727.434 L295.788,590.184 L323.435,590.184 L319.486,723.484 L328.372,728.421 L334.297,624.741 L352.07,630.665 L348.12,735.325 L356.019,736.313 L365.893,663.246 L379.716,673.12 L371.817,760.997 L363.918,806.417 L343.183,829.127 L334.667,908 C334.667,908 265.667,884.667 245.333,861.333 z" fill-opacity="0" stroke="#FFFFFF" stroke-width="8.107"/>
    </g>
    <g id="path3867">
      <path d="M773.248,801.3 L823.096,682.37 L800.272,672.968 L764.816,733.114 L726.18,599.304 L699.411,606.217 L732.926,728.097 L724.784,728.16 L680.905,597.74 L654.136,604.653 L691.291,732.733 L683.921,739.735 L652.261,640.834 L636.534,651.014 L666.529,751.364 L659.128,754.295 L631.298,686.018 L620.383,699.035 L650.005,782.146 L669.01,824.148 L694.765,840.952 C694.765,840.952 671.667,920 673.333,921.333 C675,922.667 731.667,899.334 764,877.333 C767,870 773.248,801.3 773.248,801.3 z" fill="#AEA79F"/>
      <path d="M773.248,801.3 L823.096,682.37 L800.272,672.968 L764.816,733.114 L726.18,599.304 L699.411,606.217 L732.926,728.097 L724.784,728.16 L680.905,597.74 L654.136,604.653 L691.291,732.733 L683.921,739.735 L652.261,640.834 L636.534,651.014 L666.529,751.364 L659.128,754.295 L631.298,686.018 L620.383,699.035 L650.005,782.146 L669.01,824.148 L694.765,840.952 C694.765,840.952 671.667,920 673.333,921.333 C675,922.667 731.667,899.334 764,877.333 C767,870 773.248,801.3 773.248,801.3 z" fill-opacity="0" stroke="#FFFFFF" stroke-width="8.107"/>
    </g>
    <g id="path3871">
      <path d="M407,934 L537.37,620.08 L444.924,530.173 L462.242,512.583 L518.422,554.038 L501.564,415.788 L528.902,411.665 L545.798,536.935 L553.314,533.804 L542.609,396.624 L569.947,392.501 L585.921,524.901 L595.445,528.458 L585.841,425.058 L604.299,428.265 L616.003,532.345 L623.961,532.143 L622.827,458.422 L637.968,466.123 L643.263,554.196 L642.226,600.286 L625.11,625.834 C625.11,625.834 532.333,948 528.333,948 C507,948 407,934 407,934 z" fill="#333333"/>
      <path d="M407,934 L537.37,620.08 L444.924,530.173 L462.242,512.583 L518.422,554.038 L501.564,415.788 L528.902,411.665 L545.798,536.935 L553.314,533.804 L542.609,396.624 L569.947,392.501 L585.921,524.901 L595.445,528.458 L585.841,425.058 L604.299,428.265 L616.003,532.345 L623.961,532.143 L622.827,458.422 L637.968,466.123 L643.263,554.196 L642.226,600.286 L625.11,625.834 C625.11,625.834 532.333,948 528.333,948 C507,948 407,934 407,934 z" fill-opacity="0" stroke="#FFFFFF" stroke-width="8.107"/>
    </g>
  </g>
</svg>
